<svg width="136" height="40" viewBox="0 0 136 40" fill="none" xmlns="http://www.w3.org/2000/svg">
<g clip-path="url(#clip0_10633_485)">
<path d="M20 40C31.0457 40 40 31.0457 40 20C40 8.95431 31.0457 0 20 0C8.95431 0 0 8.95431 0 20C0 31.0457 8.95431 40 20 40Z" fill="#F57C00"/>
<path d="M32.8667 17.6C32.0667 17.6 31.4333 18.2333 31.4333 19.0333C31.4333 25.3333 26.3333 30.4334 20 30.4334C13.7 30.4334 8.6 25.3334 8.6 19V11.8667C8.6 11.0667 7.96667 10.4333 7.16667 10.4333H1.43333C0.633333 10.4333 0 11.0667 0 11.8667C0 12.6667 0.633333 13.3 1.43333 13.3H5.73333V19C5.73333 26.9 12.1333 33.3 20 33.3C27.9 33.3 34.2667 26.9 34.2667 19C34.3 18.2334 33.6667 17.6 32.8667 17.6Z" fill="white"/>
<path d="M15.6667 21.8666C16.4667 21.8666 17.1001 21.2333 17.1001 20.4333V17.5666C17.1001 16.7666 16.4667 16.1333 15.6667 16.1333C14.8667 16.1333 14.2334 16.7666 14.2334 17.5666V20.4333C14.2334 21.2333 14.8667 21.8666 15.6667 21.8666Z" fill="white"/>
<path d="M24.3332 21.8666C25.1332 21.8666 25.7666 21.2333 25.7666 20.4333V17.5666C25.7666 16.7666 25.1332 16.1333 24.3332 16.1333C23.5332 16.1333 22.8999 16.7666 22.8999 17.5666V20.4333C22.8999 21.2333 23.5666 21.8666 24.3332 21.8666Z" fill="white"/>
<path d="M14.2718 39.0334C15.855 39.0306 17.1362 37.7449 17.1334 36.1617C17.1306 34.5785 15.8449 33.2973 14.2617 33.3001C12.6785 33.3029 11.3973 34.5886 11.4001 36.1718C11.4029 37.7551 12.6886 39.0362 14.2718 39.0334Z" fill="white"/>
<path d="M28.6405 36.1632C28.6434 34.58 27.3622 33.2942 25.779 33.2914C24.1958 33.2886 22.91 34.5698 22.9072 36.153C22.9044 37.7362 24.1855 39.0219 25.7688 39.0248C27.352 39.0276 28.6377 37.7464 28.6405 36.1632Z" fill="white"/>
<path d="M115.567 13.4334C114.833 13.4334 114.233 14.0334 114.233 14.7667C114.233 20.6 109.5 25.3667 103.633 25.3667C97.8 25.3667 93.0333 20.6334 93.0333 14.7667V8.13338C93.0333 7.40005 92.4333 6.80005 91.7 6.80005H86.4C85.6667 6.80005 85.0667 7.40005 85.0667 8.13338C85.0667 8.86672 85.6667 9.46672 86.4 9.46672H90.4V14.7667C90.4 22.0667 96.3333 28.0001 103.633 28.0001C110.933 28.0001 116.867 22.0667 116.867 14.7667C116.9 14 116.3 13.4334 115.567 13.4334Z" fill="#F57C00"/>
<path d="M99.6334 17.4001C100.367 17.4001 100.967 16.8001 100.967 16.0668V13.4334C100.967 12.7001 100.367 12.1001 99.6334 12.1001C98.9 12.1001 98.3 12.7001 98.3 13.4334V16.0668C98.3334 16.8001 98.9334 17.4001 99.6334 17.4001Z" fill="#F57C00"/>
<path d="M107.667 17.4001C108.4 17.4001 109 16.8001 109 16.0668V13.4334C109 12.7001 108.4 12.1001 107.667 12.1001C106.933 12.1001 106.333 12.7001 106.333 13.4334V16.0668C106.333 16.8001 106.933 17.4001 107.667 17.4001Z" fill="#F57C00"/>
<path d="M98.3333 27.9667C96.8666 27.9667 95.7 29.1667 95.7 30.6C95.7 32.0667 96.8999 33.2333 98.3333 33.2333C99.7999 33.2333 100.967 32.0333 100.967 30.6C100.967 29.1667 99.7999 27.9667 98.3333 27.9667Z" fill="#F57C00"/>
<path d="M108.967 27.9667C107.5 27.9667 106.333 29.1667 106.333 30.6C106.333 32.0667 107.533 33.2333 108.967 33.2333C110.433 33.2333 111.6 32.0333 111.6 30.6C111.633 29.1667 110.433 27.9667 108.967 27.9667Z" fill="#F57C00"/>
<path d="M49.3333 12.1001C48.6 12.1001 48 12.7001 48 13.4334V26.6668C48 27.4001 48.6 28.0001 49.3333 28.0001C50.0667 28.0001 50.6667 27.4001 50.6667 26.6668V13.4334C50.6667 12.7001 50.0667 12.1001 49.3333 12.1001Z" fill="#F57C00"/>
<path d="M81.1001 12.1001C80.3667 12.1001 79.7667 12.7001 79.7667 13.4334V18.7334H71.8334V13.4334C71.8334 13.0668 71.7001 12.7334 71.4334 12.5001C71.2001 12.2668 70.8667 12.1001 70.5001 12.1001C69.7667 12.1001 69.1667 12.7001 69.1667 13.4334V26.6668C69.1667 27.4001 69.7667 28.0001 70.5001 28.0001C71.2334 28.0001 71.8334 27.4001 71.8334 26.6668V21.3668H79.7667V26.6668C79.7667 27.4001 80.3667 28.0001 81.1001 28.0001C81.8334 28.0001 82.4334 27.4001 82.4334 26.6668V13.4334C82.4334 13.0668 82.3001 12.7334 82.0334 12.5001C81.8001 12.2334 81.4667 12.1001 81.1001 12.1001Z" fill="#F57C00"/>
<path d="M86.5001 12.1001H86.3668C85.6668 12.1001 85.1001 12.6668 85.1001 13.3668V26.7334C85.1001 27.4334 85.6668 28.0001 86.3668 28.0001H86.5001C87.2001 28.0001 87.7668 27.4334 87.7668 26.7334V13.3668C87.7668 12.6668 87.2001 12.1001 86.5001 12.1001Z" fill="#F57C00"/>
<path d="M61.3 14.7668C62.5667 14.7668 63.8 15.2334 64.7667 16.0668C65.3334 16.5334 66.1667 16.5001 66.6334 15.9334C67.1 15.3668 67.0667 14.5334 66.5 14.0668C65.0667 12.8001 63.2 12.1001 61.3 12.1001C56.9334 12.1001 53.3667 15.6668 53.3667 20.0334C53.3667 24.4001 56.9334 27.9668 61.3 27.9668C63.2334 27.9668 65.0667 27.2668 66.5 26.0001C67.0667 25.5334 67.1 24.6668 66.6334 24.1334C66.1667 23.5668 65.3 23.5334 64.7667 24.0001C63.8 24.8334 62.5667 25.3001 61.3 25.3001C58.4 25.3001 56.0334 22.9334 56.0334 20.0334C56.0334 17.1334 58.3667 14.7668 61.3 14.7668Z" fill="#F57C00"/>
<path d="M127.5 12.1334C123.1 12.1334 119.567 15.7001 119.567 20.0668C119.567 24.4334 123.133 28.0001 127.5 28.0001C129.533 28.0001 131.4 27.2334 132.8 25.9668V26.6668C132.8 27.4001 133.4 28.0001 134.133 28.0001C134.867 28.0001 135.467 27.4001 135.467 26.6668V20.1001C135.433 15.7001 131.867 12.1334 127.5 12.1334ZM127.5 25.3668C124.567 25.3668 122.2 23.0001 122.2 20.0668C122.2 17.1334 124.567 14.7668 127.5 14.7668C130.433 14.7668 132.8 17.1334 132.8 20.0668C132.767 23.0001 130.4 25.3668 127.5 25.3668Z" fill="#F57C00"/>
<path d="M102.702 6.76672C103.023 6.76672 103.298 6.83216 103.527 6.96304C103.758 7.09252 103.933 7.27758 104.051 7.51823C104.169 7.75747 104.228 8.03893 104.228 8.36261C104.228 8.60185 104.196 8.81928 104.131 9.0149C104.066 9.21052 103.969 9.3801 103.84 9.52364C103.71 9.66719 103.551 9.77696 103.363 9.85295C103.174 9.92895 102.958 9.96694 102.715 9.96694C102.473 9.96694 102.256 9.92824 102.064 9.85084C101.873 9.77203 101.713 9.66156 101.585 9.51942C101.457 9.37728 101.36 9.20629 101.294 9.00646C101.229 8.80662 101.197 8.5906 101.197 8.35839C101.197 8.12055 101.231 7.90242 101.298 7.70399C101.367 7.50556 101.466 7.33668 101.596 7.19736C101.725 7.05804 101.883 6.95178 102.069 6.8786C102.254 6.80402 102.465 6.76672 102.702 6.76672ZM103.593 8.35839C103.593 8.13181 103.556 7.93549 103.483 7.76943C103.41 7.60337 103.305 7.47812 103.168 7.39368C103.033 7.30783 102.878 7.26491 102.702 7.26491C102.577 7.26491 102.461 7.28884 102.354 7.33668C102.248 7.38312 102.157 7.45138 102.079 7.54145C102.003 7.63151 101.943 7.74691 101.898 7.88765C101.854 8.02697 101.832 8.18388 101.832 8.35839C101.832 8.5343 101.854 8.69333 101.898 8.83547C101.943 8.97761 102.005 9.09582 102.085 9.19011C102.167 9.28299 102.26 9.35265 102.364 9.39909C102.47 9.44554 102.585 9.46876 102.71 9.46876C102.871 9.46876 103.018 9.42865 103.152 9.34843C103.287 9.26821 103.394 9.14437 103.472 8.9769C103.553 8.80943 103.593 8.60326 103.593 8.35839Z" fill="#F57C00"/>
<path d="M105.624 7.14248L106.83 8.96635V7.12559C106.83 7.00597 106.855 6.9166 106.906 6.8575C106.958 6.79698 107.028 6.76672 107.115 6.76672C107.205 6.76672 107.276 6.79698 107.328 6.8575C107.38 6.9166 107.406 7.00597 107.406 7.12559V9.55953C107.406 9.83114 107.294 9.96694 107.068 9.96694C107.012 9.96694 106.961 9.9585 106.916 9.94161C106.871 9.92613 106.829 9.9008 106.79 9.86562C106.75 9.83043 106.714 9.78962 106.68 9.74318C106.646 9.69533 106.612 9.64678 106.579 9.59753L105.403 7.79476V9.60808C105.403 9.72629 105.375 9.81566 105.321 9.87617C105.266 9.93669 105.195 9.96694 105.109 9.96694C105.021 9.96694 104.95 9.93669 104.896 9.87617C104.843 9.81425 104.816 9.72489 104.816 9.60808V7.22058C104.816 7.11925 104.827 7.03974 104.85 6.98204C104.876 6.91871 104.921 6.86735 104.983 6.82794C105.045 6.78713 105.112 6.76672 105.183 6.76672C105.24 6.76672 105.287 6.77587 105.327 6.79417C105.368 6.81246 105.403 6.83709 105.432 6.86805C105.463 6.89901 105.494 6.93912 105.525 6.98837C105.558 7.03763 105.591 7.089 105.624 7.14248Z" fill="#F57C00"/>
<path d="M110.175 7.30291H108.762V8.06285H110.063C110.158 8.06285 110.23 8.08467 110.276 8.12829C110.324 8.17051 110.348 8.22681 110.348 8.29717C110.348 8.36754 110.324 8.42524 110.278 8.47027C110.232 8.5139 110.16 8.53571 110.063 8.53571H108.762V9.41598H110.223C110.322 9.41598 110.396 9.4392 110.445 9.48564C110.495 9.53068 110.521 9.59119 110.521 9.66719C110.521 9.74037 110.495 9.80018 110.445 9.84662C110.396 9.89165 110.322 9.91417 110.223 9.91417H108.52C108.383 9.91417 108.285 9.88391 108.224 9.8234C108.165 9.76288 108.135 9.66508 108.135 9.52997V7.20369C108.135 7.11363 108.149 7.04045 108.176 6.98415C108.202 6.92645 108.244 6.88494 108.3 6.85961C108.358 6.83287 108.431 6.8195 108.52 6.8195H110.175C110.275 6.8195 110.348 6.84201 110.396 6.88705C110.446 6.93068 110.47 6.98837 110.47 7.06015C110.47 7.13333 110.446 7.19243 110.396 7.23747C110.348 7.28109 110.275 7.30291 110.175 7.30291Z" fill="#F57C00"/>
<path d="M113.387 8.70881H112.813V9.58486C112.813 9.71011 112.784 9.8051 112.725 9.86984C112.665 9.93458 112.591 9.96694 112.501 9.96694C112.407 9.96694 112.331 9.93528 112.273 9.87195C112.215 9.80721 112.186 9.71292 112.186 9.58908V7.20369C112.186 7.06578 112.218 6.96727 112.281 6.90816C112.345 6.84905 112.445 6.8195 112.583 6.8195H113.387C113.625 6.8195 113.808 6.83779 113.936 6.87438C114.063 6.90957 114.172 6.96797 114.263 7.04959C114.356 7.13122 114.427 7.23114 114.475 7.34935C114.522 7.46756 114.546 7.60055 114.546 7.74832C114.546 8.06356 114.449 8.3028 114.255 8.46605C114.061 8.62789 113.772 8.70881 113.387 8.70881ZM113.235 7.29024H112.813V8.23595H113.235C113.383 8.23595 113.506 8.22047 113.605 8.18951C113.705 8.15855 113.781 8.10789 113.833 8.03752C113.885 7.96716 113.911 7.87498 113.911 7.76099C113.911 7.62448 113.871 7.5133 113.791 7.42746C113.701 7.33598 113.515 7.29024 113.235 7.29024Z" fill="#F57C00"/>
<path d="M115.727 7.1467V9.39909H116.998C117.1 9.39909 117.177 9.42372 117.23 9.47298C117.285 9.52223 117.313 9.58416 117.313 9.65874C117.313 9.73474 117.286 9.79666 117.232 9.84451C117.179 9.89095 117.101 9.91417 116.998 9.91417H115.485C115.348 9.91417 115.25 9.88391 115.189 9.8234C115.13 9.76288 115.1 9.66508 115.1 9.52997V7.1467C115.1 7.02004 115.129 6.92505 115.185 6.86172C115.243 6.79839 115.318 6.76672 115.411 6.76672C115.505 6.76672 115.581 6.79839 115.639 6.86172C115.698 6.92364 115.727 7.01863 115.727 7.1467Z" fill="#F57C00"/>
<path d="M119.691 9.56375L119.543 9.17533H118.285L118.137 9.57219C118.079 9.727 118.03 9.83184 117.989 9.88673C117.948 9.9402 117.882 9.96694 117.789 9.96694C117.71 9.96694 117.64 9.93809 117.58 9.88039C117.519 9.82269 117.489 9.75725 117.489 9.68407C117.489 9.64186 117.496 9.59823 117.51 9.55319C117.524 9.50816 117.547 9.44554 117.58 9.36532L118.371 7.35568C118.394 7.29798 118.421 7.22902 118.452 7.14881C118.484 7.06718 118.518 6.99963 118.553 6.94616C118.589 6.89268 118.637 6.84975 118.694 6.81739C118.753 6.78361 118.826 6.76672 118.912 6.76672C118.999 6.76672 119.071 6.78361 119.129 6.81739C119.188 6.84975 119.235 6.89197 119.271 6.94404C119.307 6.99611 119.337 7.05241 119.361 7.11292C119.387 7.17203 119.418 7.25154 119.456 7.35146L120.265 9.34843C120.328 9.50042 120.36 9.61089 120.36 9.67985C120.36 9.75163 120.33 9.81777 120.269 9.87828C120.21 9.93739 120.138 9.96694 120.054 9.96694C120.005 9.96694 119.962 9.9578 119.927 9.9395C119.892 9.92261 119.862 9.89939 119.838 9.86984C119.815 9.83888 119.788 9.79244 119.76 9.73052C119.734 9.66719 119.71 9.6116 119.691 9.56375ZM118.449 8.70459H119.374L118.908 7.42746L118.449 8.70459Z" fill="#F57C00"/>
<path d="M122.495 7.33668H121.811V9.58486C121.811 9.71433 121.782 9.81073 121.725 9.87406C121.667 9.93598 121.592 9.96694 121.501 9.96694C121.408 9.96694 121.332 9.93528 121.273 9.87195C121.215 9.80862 121.186 9.71292 121.186 9.58486V7.33668H120.502C120.395 7.33668 120.316 7.31346 120.264 7.26702C120.212 7.21917 120.186 7.15655 120.186 7.07915C120.186 6.99893 120.212 6.9356 120.266 6.88916C120.321 6.84272 120.4 6.8195 120.502 6.8195H122.495C122.603 6.8195 122.684 6.84342 122.736 6.89127C122.789 6.93912 122.816 7.00174 122.816 7.07915C122.816 7.15655 122.789 7.21917 122.736 7.26702C122.682 7.31346 122.602 7.33668 122.495 7.33668Z" fill="#F57C00"/>
<path d="M125.08 7.30291H123.845V8.09452H124.877C124.973 8.09452 125.044 8.11633 125.09 8.15996C125.138 8.20218 125.162 8.25917 125.162 8.33095C125.162 8.40272 125.138 8.45972 125.09 8.50194C125.043 8.54415 124.972 8.56526 124.877 8.56526H123.845V9.58486C123.845 9.71433 123.815 9.81073 123.756 9.87406C123.699 9.93598 123.624 9.96694 123.533 9.96694C123.44 9.96694 123.364 9.93528 123.305 9.87195C123.247 9.80862 123.218 9.71292 123.218 9.58486V7.20369C123.218 7.11363 123.231 7.04045 123.258 6.98415C123.285 6.92645 123.326 6.88494 123.383 6.85961C123.44 6.83287 123.514 6.8195 123.602 6.8195H125.08C125.18 6.8195 125.254 6.84201 125.302 6.88705C125.351 6.93068 125.375 6.98837 125.375 7.06015C125.375 7.13333 125.351 7.19243 125.302 7.23747C125.254 7.28109 125.18 7.30291 125.08 7.30291Z" fill="#F57C00"/>
<path d="M127.249 6.76672C127.57 6.76672 127.845 6.83216 128.074 6.96304C128.305 7.09252 128.48 7.27758 128.598 7.51823C128.716 7.75747 128.775 8.03893 128.775 8.36261C128.775 8.60185 128.743 8.81928 128.678 9.0149C128.613 9.21052 128.516 9.3801 128.387 9.52364C128.257 9.66719 128.098 9.77696 127.91 9.85295C127.721 9.92895 127.505 9.96694 127.262 9.96694C127.019 9.96694 126.803 9.92824 126.611 9.85084C126.42 9.77203 126.26 9.66156 126.132 9.51942C126.004 9.37728 125.907 9.20629 125.841 9.00646C125.776 8.80662 125.744 8.5906 125.744 8.35839C125.744 8.12055 125.778 7.90242 125.845 7.70399C125.914 7.50556 126.013 7.33668 126.143 7.19736C126.272 7.05804 126.43 6.95178 126.616 6.8786C126.801 6.80402 127.012 6.76672 127.249 6.76672ZM128.14 8.35839C128.14 8.13181 128.103 7.93549 128.03 7.76943C127.957 7.60337 127.852 7.47812 127.715 7.39368C127.58 7.30783 127.425 7.26491 127.249 7.26491C127.124 7.26491 127.007 7.28884 126.901 7.33668C126.795 7.38312 126.704 7.45138 126.626 7.54145C126.55 7.63151 126.49 7.74691 126.445 7.88765C126.401 8.02697 126.379 8.18388 126.379 8.35839C126.379 8.5343 126.401 8.69333 126.445 8.83547C126.49 8.97761 126.552 9.09582 126.632 9.19011C126.714 9.28299 126.807 9.35265 126.911 9.39909C127.017 9.44554 127.132 9.46876 127.257 9.46876C127.418 9.46876 127.565 9.42865 127.698 9.34843C127.834 9.26821 127.941 9.14437 128.019 8.9769C128.1 8.80943 128.14 8.60326 128.14 8.35839Z" fill="#F57C00"/>
<path d="M130.197 8.5906H129.977V9.58486C129.977 9.71574 129.948 9.81214 129.891 9.87406C129.833 9.93598 129.758 9.96694 129.665 9.96694C129.565 9.96694 129.487 9.93458 129.433 9.86984C129.378 9.8051 129.35 9.71011 129.35 9.58486V7.20369C129.35 7.06859 129.381 6.97078 129.441 6.91027C129.502 6.84975 129.599 6.8195 129.734 6.8195H130.754C130.895 6.8195 131.015 6.82583 131.115 6.8385C131.215 6.84975 131.305 6.87368 131.385 6.91027C131.482 6.95108 131.568 7.00948 131.643 7.08548C131.717 7.16147 131.774 7.25013 131.812 7.35146C131.851 7.45138 131.871 7.55763 131.871 7.67022C131.871 7.90101 131.805 8.08537 131.674 8.22329C131.545 8.3612 131.348 8.45901 131.083 8.51671C131.195 8.57582 131.301 8.66307 131.402 8.77847C131.503 8.89387 131.594 9.01701 131.672 9.14789C131.753 9.27736 131.814 9.39487 131.858 9.50042C131.903 9.60456 131.926 9.67633 131.926 9.71574C131.926 9.75655 131.912 9.79736 131.886 9.83817C131.86 9.87758 131.825 9.90854 131.78 9.93106C131.735 9.95498 131.683 9.96694 131.624 9.96694C131.553 9.96694 131.494 9.95006 131.446 9.91628C131.399 9.88391 131.357 9.8424 131.322 9.79173C131.288 9.74107 131.242 9.66648 131.183 9.56797L130.931 9.15C130.841 8.9966 130.76 8.8798 130.689 8.79958C130.618 8.71936 130.546 8.66448 130.473 8.63493C130.4 8.60537 130.308 8.5906 130.197 8.5906ZM130.556 7.29024H129.977V8.14096H130.539C130.689 8.14096 130.816 8.12829 130.919 8.10296C131.021 8.07622 131.1 8.03189 131.153 7.96997C131.208 7.90664 131.235 7.82009 131.235 7.71032C131.235 7.62448 131.214 7.54919 131.17 7.48445C131.126 7.41831 131.066 7.36905 130.988 7.33668C130.915 7.30572 130.771 7.29024 130.556 7.29024Z" fill="#F57C00"/>
<path d="M133.554 9.44765L133.058 7.47601V9.6123C133.058 9.73052 133.031 9.81918 132.978 9.87828C132.926 9.93739 132.856 9.96694 132.769 9.96694C132.684 9.96694 132.616 9.93809 132.562 9.88039C132.509 9.82129 132.482 9.73192 132.482 9.6123V7.16358C132.482 7.02848 132.517 6.93771 132.587 6.89127C132.658 6.84342 132.753 6.8195 132.872 6.8195H133.067C133.183 6.8195 133.268 6.83005 133.32 6.85116C133.373 6.87227 133.413 6.91027 133.438 6.96515C133.463 7.02004 133.492 7.1094 133.525 7.23325L133.974 8.92835L134.424 7.23325C134.456 7.1094 134.485 7.02004 134.51 6.96515C134.536 6.91027 134.575 6.87227 134.627 6.85116C134.68 6.83005 134.765 6.8195 134.882 6.8195H135.076C135.196 6.8195 135.291 6.84342 135.361 6.89127C135.432 6.93771 135.467 7.02848 135.467 7.16358V9.6123C135.467 9.73052 135.44 9.81918 135.387 9.87828C135.334 9.93739 135.264 9.96694 135.175 9.96694C135.092 9.96694 135.024 9.93739 134.971 9.87828C134.917 9.81918 134.89 9.73052 134.89 9.6123V7.47601L134.394 9.44765C134.362 9.57571 134.335 9.67 134.314 9.73052C134.294 9.78962 134.257 9.8438 134.202 9.89306C134.147 9.94232 134.071 9.96694 133.974 9.96694C133.901 9.96694 133.839 9.95076 133.789 9.91839C133.738 9.88743 133.698 9.84732 133.67 9.79807C133.642 9.74881 133.62 9.69463 133.603 9.63552C133.587 9.57501 133.571 9.51238 133.554 9.44765Z" fill="#F57C00"/>
</g>
<defs>
<clipPath id="clip0_10633_485">
<rect width="135.467" height="40" fill="white"/>
</clipPath>
</defs>
</svg>
