<svg width="24" height="24" viewBox="0 0 24 24" fill="none" xmlns="http://www.w3.org/2000/svg">
<path d="M13.1207 10.2H10.8792C10.4716 10.2 10.2 10.4716 10.2 10.8792V13.1207C10.2 13.5283 10.4716 13.8 10.8792 13.8H13.1207C13.5283 13.8 13.8 13.5283 13.8 13.1207V10.8792C13.8 10.5396 13.4603 10.2 13.1207 10.2Z" fill="white"/>
<path d="M13.1207 17.3999H10.8792C10.4716 17.3999 10.2 17.6716 10.2 18.0791V20.3207C10.2 20.7282 10.4716 20.9999 10.8792 20.9999H13.1207C13.5283 20.9999 13.8 20.7282 13.8 20.3207V18.0791C13.8 17.6716 13.4603 17.3999 13.1207 17.3999Z" fill="white"/>
<path d="M13.1207 3H10.8792C10.4716 3 10.2 3.2717 10.2 3.67925V5.92075C10.2 6.3283 10.4716 6.6 10.8792 6.6H13.1207C13.5283 6.6 13.8 6.3283 13.8 5.92075V3.67925C13.8 3.2717 13.4603 3 13.1207 3Z" fill="white"/>
<path d="M5.92075 10.2H3.67925C3.2717 10.2 3 10.4716 3 10.8792V13.1207C3 13.5283 3.2717 13.8 3.67925 13.8H5.92075C6.3283 13.8 6.6 13.5283 6.6 13.1207V10.8792C6.6 10.5396 6.3283 10.2 5.92075 10.2Z" fill="white"/>
<path d="M20.3207 10.2H18.0791C17.6716 10.2 17.3999 10.4716 17.3999 10.8792V13.1207C17.3999 13.5283 17.6716 13.8 18.0791 13.8H20.3207C20.7282 13.8 20.9999 13.5283 20.9999 13.1207V10.8792C20.9999 10.5396 20.7282 10.2 20.3207 10.2Z" fill="white"/>
<path d="M5.92075 17.3999H3.67925C3.2717 17.3999 3 17.6716 3 18.0791V20.3207C3 20.7282 3.2717 20.9999 3.67925 20.9999H5.92075C6.3283 20.9999 6.6 20.7282 6.6 20.3207V18.0791C6.6 17.6716 6.3283 17.3999 5.92075 17.3999Z" fill="white"/>
<path d="M20.3207 17.3999H18.0791C17.6716 17.3999 17.3999 17.6716 17.3999 18.0791V20.3207C17.3999 20.7282 17.6716 20.9999 18.0791 20.9999H20.3207C20.7282 20.9999 20.9999 20.7282 20.9999 20.3207V18.0791C20.9999 17.6716 20.7282 17.3999 20.3207 17.3999Z" fill="white"/>
<path d="M5.92075 3H3.67925C3.2717 3 3 3.2717 3 3.67925V5.92075C3 6.3283 3.2717 6.6 3.67925 6.6H5.92075C6.3283 6.6 6.6 6.3283 6.6 5.92075V3.67925C6.6 3.2717 6.3283 3 5.92075 3Z" fill="white"/>
<path d="M20.3207 3H18.0791C17.6716 3 17.3999 3.2717 17.3999 3.67925V5.92075C17.3999 6.3283 17.6716 6.6 18.0791 6.6H20.3207C20.7282 6.6 20.9999 6.3283 20.9999 5.92075V3.67925C20.9999 3.2717 20.7282 3 20.3207 3Z" fill="white"/>
</svg>
