<svg width="26" height="26" viewBox="0 0 26 26" fill="none" xmlns="http://www.w3.org/2000/svg">
<path d="M10.509 19.0029V19.5151C10.509 20.1756 10.7715 20.809 11.2387 21.2759C11.7059 21.7427 12.3395 22.0047 13 22.0042V22.0042C13.6606 22.0044 14.2942 21.7422 14.7614 21.2752C15.2286 20.8082 15.491 20.1747 15.491 19.5141V19.0029" stroke="#333333" stroke-width="1.5" stroke-linecap="round" stroke-linejoin="round"/>
<path fill-rule="evenodd" clip-rule="evenodd" d="M18.9495 19.0023C20.0838 19.0023 21.0033 18.0828 21.0033 16.9485V16.9485C21.0028 16.3723 20.7741 15.8197 20.367 15.4118L19.0025 14.0483V9.99859C19.0025 6.6835 16.3151 3.99609 13 3.99609V3.99609C9.68489 3.99609 6.99748 6.6835 6.99748 9.99859V14.0483L5.63291 15.4118C5.22589 15.8197 4.9971 16.3723 4.99664 16.9485V16.9485C4.99664 17.4932 5.21303 18.0156 5.5982 18.4008C5.98338 18.786 6.50578 19.0023 7.0505 19.0023H18.9495Z" stroke="#333333" stroke-width="1.5" stroke-linecap="round" stroke-linejoin="round"/>
</svg>
