<svg width="24" height="24" viewBox="0 0 24 24" fill="none" xmlns="http://www.w3.org/2000/svg">
<circle cx="11.7199" cy="9.51331" r="1.68055" stroke="white" stroke-width="1.5" stroke-linecap="round" stroke-linejoin="round"/>
<circle cx="8.07874" cy="15.6753" r="1.68055" stroke="white" stroke-width="1.5" stroke-linecap="round" stroke-linejoin="round"/>
<circle cx="15.3612" cy="15.1151" r="1.68055" stroke="white" stroke-width="1.5" stroke-linecap="round" stroke-linejoin="round"/>
<path d="M6.50022 10.425C6.47678 10.4382 6.45304 10.449 6.42966 10.4625C2.80552 12.5549 1.05344 16.305 2.51627 18.8387C3.9791 21.3724 8.10282 21.7301 11.727 19.6377C12.996 18.9187 14.0915 17.9295 14.936 16.7403" stroke="white" stroke-width="1.5" stroke-linecap="round" stroke-linejoin="round"/>
<path d="M17.0485 10.1857C17.0537 10.0483 17.0759 9.91799 17.0759 9.77869C17.0759 5.59381 14.7043 2.20142 11.7787 2.20142C8.85309 2.20142 6.48139 5.59381 6.48139 9.77856C6.47219 11.2789 6.80697 12.7614 7.46003 14.1122" stroke="white" stroke-width="1.5" stroke-linecap="round" stroke-linejoin="round"/>
<path d="M13.3533 9.1261C14.8418 9.24778 16.2835 9.70464 17.5704 10.4625C21.1945 12.5549 22.9466 16.305 21.4838 18.8387C20.021 21.3724 15.8972 21.73 12.2731 19.6377C12.181 19.5845 12.0952 19.5261 12.0059 19.4705" stroke="white" stroke-width="1.5" stroke-linecap="round" stroke-linejoin="round"/>
</svg>
