<svg width="24" height="24" viewBox="0 0 24 24" fill="none" xmlns="http://www.w3.org/2000/svg">
<path fill-rule="evenodd" clip-rule="evenodd" d="M4.50617 10.6982L4.16241 10.3106C3.59121 9.66651 3.49628 8.72916 3.92674 7.98361L4.48517 7.01632C4.91559 6.27079 5.77478 5.88433 6.61817 6.05691L7.12585 6.16079C7.59582 6.25695 8.08473 6.1776 8.50017 5.93774V5.93774C8.9156 5.69789 9.22877 5.31414 9.38047 4.85906L9.54432 4.36753C9.81655 3.55085 10.5808 3 11.4417 3H12.5587C13.4195 3 14.1838 3.55085 14.456 4.36753L14.6199 4.85906C14.7716 5.31414 15.0847 5.69787 15.5002 5.93773V5.93773C15.9156 6.1776 16.4045 6.25695 16.8745 6.16078L17.3822 6.0569C18.2256 5.88432 19.0848 6.27078 19.5152 7.01631L20.0737 7.98363C20.5041 8.72918 20.4092 9.66653 19.838 10.3106L19.4942 10.6983C19.1759 11.0572 19.0002 11.5203 19.0002 12V12C19.0002 12.4797 19.1759 12.9428 19.4942 13.3018L19.838 13.6894C20.4092 14.3335 20.5041 15.2708 20.0736 16.0164L19.5152 16.9837C19.0847 17.7292 18.2255 18.1157 17.3822 17.9431L16.8743 17.8392C16.4044 17.7431 15.9155 17.8224 15.5001 18.0622V18.0622C15.0847 18.302 14.7715 18.6858 14.6198 19.1409L14.456 19.6325C14.1837 20.4491 13.4195 21 12.5586 21H11.4417C10.5808 21 9.81655 20.4491 9.54433 19.6324L9.38046 19.1408C9.22877 18.6857 8.9156 18.302 8.50017 18.0622V18.0622C8.08478 17.8224 7.59592 17.743 7.12602 17.8392L6.61817 17.9431C5.77478 18.1157 4.91559 17.7292 4.48517 16.9837L3.92668 16.0164C3.49622 15.2708 3.59115 14.3335 4.16235 13.6894L4.50611 13.3017C4.82439 12.9428 5.00015 12.4797 5.00017 12V12C5.00018 11.5203 4.82444 11.0572 4.50617 10.6982Z" stroke="#333333" stroke-width="1.5" stroke-linecap="round" stroke-linejoin="round"/>
<circle cx="12" cy="12" r="3" stroke="#333333" stroke-width="1.5" stroke-linecap="round" stroke-linejoin="round"/>
</svg>
