<svg width="24" height="24" viewBox="0 0 24 24" fill="none" xmlns="http://www.w3.org/2000/svg">
<path d="M12.9447 9.69604C13.9411 10.6925 13.9411 12.3071 12.9447 13.3035C11.9482 14.3 10.3336 14.3 9.33715 13.3035C8.34074 12.3071 8.34074 10.6925 9.33715 9.69604C10.3326 8.69963 11.9482 8.69963 12.9447 9.69604" stroke="white" stroke-width="1.5" stroke-linecap="round" stroke-linejoin="round"/>
<path d="M17.5185 11.4998C17.5185 11.2186 17.4934 10.9385 17.4594 10.6664L18.9601 9.49292C19.2922 9.23181 19.3832 8.76662 19.1721 8.40047L17.8376 6.09251C17.6265 5.72735 17.1793 5.57329 16.7872 5.72935L15.4466 6.26758C15.1805 6.37462 14.8834 6.3296 14.6433 6.17154C14.4352 6.03448 14.2211 5.90943 13.999 5.79738C13.7429 5.66933 13.5558 5.43523 13.5148 5.15211L13.3107 3.72352C13.2517 3.30634 12.8935 2.99622 12.4714 2.99622H9.81025C9.38907 2.99622 9.03092 3.30634 8.9709 3.72352L8.76481 5.15411C8.72479 5.43623 8.53872 5.66933 8.28461 5.79838C8.06152 5.91243 7.84543 6.03948 7.63834 6.17654C7.39924 6.33361 7.10312 6.37562 6.83801 6.26958L5.49545 5.72935C5.10329 5.57229 4.6551 5.72635 4.44501 6.09251L3.11046 8.40047C2.89837 8.76662 2.98941 9.23281 3.32154 9.49292L4.82217 10.6664C4.78815 10.9385 4.76214 11.2186 4.76214 11.4998C4.76214 11.7799 4.78715 12.061 4.82217 12.3331L3.32154 13.5066C2.98941 13.7677 2.89837 14.2329 3.10946 14.599L4.44401 16.907C4.6551 17.2722 5.10229 17.4262 5.49445 17.2702L6.83801 16.7309C7.10312 16.6239 7.39924 16.6669 7.63734 16.825C7.84543 16.963 8.06052 17.0891 8.28361 17.2031C8.53872 17.3322 8.72379 17.5643 8.76481 17.8474L8.9699 19.277C9.02992 19.6932 9.38807 20.0033 9.80925 20.0033H11.1408" stroke="white" stroke-width="1.5" stroke-linecap="round" stroke-linejoin="round"/>
<path d="M15.0015 16.0017H21.004" stroke="white" stroke-width="1.5" stroke-linecap="round" stroke-linejoin="round"/>
<path d="M15.0015 18.5026H21.004" stroke="white" stroke-width="1.5" stroke-linecap="round" stroke-linejoin="round"/>
<path d="M15.0015 21.0037H21.004" stroke="white" stroke-width="1.5" stroke-linecap="round" stroke-linejoin="round"/>
</svg>
